<?xml version="1.0" standalone="no"?>
<!DOCTYPE svg PUBLIC "-//W3C//DTD SVG 20010904//EN"
 "http://www.w3.org/TR/2001/REC-SVG-20010904/DTD/svg10.dtd">
<svg version="1.0" xmlns="http://www.w3.org/2000/svg"
 width="298.000000pt" height="313.000000pt" viewBox="0 0 298.000000 313.000000"
 preserveAspectRatio="xMidYMid meet">
<metadata>
Created by potrace 1.16, written by Peter Selinger 2001-2019
</metadata>
<g transform="translate(0.000000,313.000000) scale(0.100000,-0.100000)"
fill="#000000" stroke="none">
<path d="M0 1565 l0 -1565 1490 0 1490 0 0 1350 c0 1101 -2 1350 -13 1350 -10
0 -157 -158 -299 -322 -11 -13 -34 -39 -51 -58 -18 -19 -66 -73 -107 -120 -41
-47 -94 -105 -116 -130 -23 -25 -57 -63 -75 -85 -19 -22 -41 -47 -49 -55 -21
-21 -95 -103 -165 -184 -72 -83 -141 -156 -148 -156 -3 0 -12 6 -19 14 -23 24
-297 306 -396 407 -97 100 -104 115 -68 151 6 7 25 31 41 53 34 45 52 67 89
110 l26 30 52 -56 c29 -30 89 -95 133 -144 44 -49 90 -99 101 -112 12 -13 28
-23 37 -23 15 0 66 64 197 246 30 42 90 123 133 181 42 57 77 108 77 113 0 5
4 10 8 12 4 2 38 44 74 93 64 87 83 113 177 247 25 35 64 89 88 120 24 31 43
66 43 77 l0 21 -1375 0 -1375 0 0 -1565z m972 91 c41 -8 103 -26 139 -40 61
-25 189 -104 189 -117 0 -3 -13 -23 -30 -44 -16 -21 -30 -41 -30 -44 0 -3 -18
-26 -39 -50 l-38 -44 -44 30 c-196 132 -460 136 -509 8 -35 -92 25 -144 220
-190 254 -59 376 -116 447 -208 48 -65 67 -134 60 -228 -9 -136 -82 -247 -202
-307 -104 -52 -158 -62 -325 -64 -124 -1 -250 25 -317 65 -18 10 -33 16 -33
12 0 -3 -15 5 -33 19 -19 15 -39 26 -44 26 -12 0 -73 60 -73 72 0 4 27 46 61
93 57 79 80 98 93 76 14 -22 123 -85 189 -108 88 -31 212 -41 287 -23 38 9 63
23 91 51 35 35 39 45 39 87 0 85 -43 112 -272 171 -273 69 -376 128 -434 248
-23 47 -28 70 -28 137 -1 72 3 89 32 148 90 184 336 275 604 224z m1121 -332
c107 -28 174 -72 243 -159 66 -84 104 -200 104 -318 l0 -67 -349 0 c-193 0
-352 -4 -355 -9 -12 -20 26 -110 63 -150 55 -59 110 -81 201 -81 83 0 150 17
218 55 53 30 52 30 116 -64 l36 -54 -37 -23 c-54 -33 -171 -81 -216 -88 -76
-12 -251 -8 -293 7 -218 78 -344 251 -344 471 0 147 51 268 152 362 128 118
296 161 461 118z"/>
<path d="M1900 1151 c-74 -23 -135 -80 -158 -150 -26 -75 -40 -71 228 -71 267
0 251 -5 230 69 -27 96 -118 162 -219 160 -31 0 -67 -4 -81 -8z"/>
</g>
</svg>
